<svg width="81" height="80" viewBox="0 0 81 80" fill="none" xmlns="http://www.w3.org/2000/svg">
<circle cx="40.5" cy="40" r="40" fill="white"/>
<g clip-path="url(#clip0_2314_10922)">
<path d="M30.8551 37.4971L27.7853 45.6853V45.686C28.5365 48.687 30.1876 51.34 32.525 53.3411L36.3766 51.8968C32.2856 48.2326 30.2663 42.8429 30.8551 37.4971Z" fill="#FE6F46"/>
<path d="M26.746 48.457L24.393 54.731C24.1117 55.4804 24.8448 56.2216 25.5998 55.9378L30.5639 54.0767C28.8988 52.4607 27.6072 50.5348 26.746 48.457Z" fill="#FE6F46"/>
<path d="M37.4359 36.7335L33.9368 33.2344C31.0997 39.6341 33.0393 46.949 38.3921 51.1414L42.1269 49.7409C38.8469 46.3536 37.0728 41.6256 37.4359 36.7335Z" fill="#FE6F46"/>
<path d="M39.2664 38.5645C39.4102 42.5423 41.1426 46.3015 44.0737 49.0107H44.0743L46.8116 47.9845C47.451 47.7445 47.6259 46.9239 47.1453 46.4434L39.2664 38.5645Z" fill="#FE6F46"/>
<path d="M46.1134 41.5093C46.4795 41.8755 47.0731 41.8755 47.4392 41.5093C50.9659 37.9826 54.4001 39.0729 54.4344 39.0843C54.9255 39.248 55.4564 38.9826 55.6202 38.4914C55.784 38.0004 55.5184 37.4693 55.0273 37.3056C54.8424 37.244 50.4505 35.8465 46.1135 40.1836C45.7473 40.5497 45.7473 41.1433 46.1134 41.5093Z" fill="#FE6F46"/>
<path d="M40.1476 34.2178C44.4849 29.8812 43.0868 25.489 43.0256 25.304C42.8619 24.8127 42.3306 24.5478 41.8394 24.7115C41.3488 24.8752 41.0832 25.4058 41.247 25.8971C41.2582 25.9314 42.3488 29.3656 38.8215 32.8923C38.4577 33.256 38.454 33.8492 38.8215 34.2178C39.1895 34.5858 39.7825 34.5829 40.1476 34.2178Z" fill="#FE6F46"/>
<path d="M42.1362 36.2063C41.7701 36.5725 41.7701 37.166 42.1362 37.5321C42.4989 37.8949 43.0883 37.8996 43.4563 37.5376C43.9406 37.2963 45.4438 38.2014 46.2792 37.3663C47.1055 36.5399 46.2275 35.0673 46.4468 34.5512C46.9636 34.3313 48.4357 35.2098 49.262 34.3835C50.0886 33.557 49.2105 32.0844 49.4298 31.5683C49.9474 31.3483 51.4186 32.2269 52.245 31.4005C53.0716 30.5741 52.1935 29.1015 52.4128 28.5853C52.9272 28.3665 54.4022 29.2431 55.228 28.4175C56.0631 27.5824 55.1597 26.0765 55.3992 25.5947C55.7598 25.2283 55.7579 24.6389 55.3937 24.2746C55.0276 23.9085 54.434 23.9085 54.0679 24.2746C53.329 25.0135 53.4736 26.0566 53.6128 26.8024C52.867 26.6632 51.8239 26.5186 51.085 27.2575C50.3462 27.9963 50.4907 29.0395 50.6299 29.7852C49.8841 29.6461 48.8409 29.5014 48.1021 30.2404C47.3632 30.9793 47.5078 32.0224 47.647 32.7682C46.9011 32.629 45.8581 32.4844 45.1192 33.2233C44.3803 33.9622 44.5249 35.0053 44.6641 35.7511C43.9182 35.612 42.875 35.4675 42.1362 36.2063Z" fill="#FE6F46"/>
<path d="M47.4392 28.2517C47.8053 27.8856 47.8053 27.292 47.4392 26.9259C47.0731 26.5598 46.4795 26.5598 46.1134 26.9259C45.7473 27.292 45.7473 27.8856 46.1134 28.2517C46.4795 28.6178 47.0731 28.6178 47.4392 28.2517Z" fill="#FE6F46"/>
<path d="M53.405 35.1552C53.9227 35.1552 54.3424 34.7355 54.3424 34.2177C54.3424 33.7 53.9227 33.2803 53.405 33.2803C52.8872 33.2803 52.4675 33.7 52.4675 34.2177C52.4675 34.7355 52.8872 35.1552 53.405 35.1552Z" fill="#FE6F46"/>
<path d="M51.4164 42.8351C51.0503 43.2012 51.0503 43.7948 51.4164 44.1609C51.7825 44.527 52.376 44.527 52.7421 44.1609C53.1082 43.7948 53.1082 43.2012 52.7421 42.8351C52.3761 42.469 51.7825 42.469 51.4164 42.8351Z" fill="#FE6F46"/>
<path d="M38.1589 29.5778C38.525 29.2117 38.525 28.6182 38.1589 28.2521C37.7928 27.886 37.1993 27.886 36.8332 28.2521C36.4671 28.6182 36.4671 29.2117 36.8332 29.5778C37.1993 29.9439 37.7929 29.9439 38.1589 29.5778Z" fill="#FE6F46"/>
</g>
<defs>
<clipPath id="clip0_2314_10922">
<rect width="32" height="32" fill="white" transform="translate(24 24)"/>
</clipPath>
</defs>
</svg>
