<svg width="80" height="80" viewBox="0 0 80 80" fill="none" xmlns="http://www.w3.org/2000/svg">
<circle cx="40" cy="40" r="40" fill="white"/>
<path fill-rule="evenodd" clip-rule="evenodd" d="M41.8952 25.8212L43.8006 27.2474C44.3217 27.6375 44.8702 27.8371 45.5202 27.8733L47.8965 28.0055C49.3194 28.0846 50.4751 29.0543 50.8001 30.4419L51.343 32.7592C51.4914 33.393 51.7833 33.8985 52.2579 34.3439L53.9933 35.9727C55.0325 36.948 55.2944 38.4337 54.6515 39.7056L53.5778 41.8296C53.2842 42.4105 53.1828 42.9854 53.2601 43.6317L53.5426 45.9949C53.7117 47.41 52.9574 48.7164 51.6474 49.2775L49.4595 50.2145C48.8612 50.4707 48.414 50.8459 48.0578 51.3907L46.7551 53.3825C45.9751 54.5752 44.5575 55.0912 43.1933 54.6789L40.9151 53.9904C40.292 53.8021 39.7083 53.8021 39.0852 53.9904L36.807 54.6789C35.4428 55.0912 34.0252 54.5752 33.2452 53.3825L31.9425 51.3907C31.5862 50.8459 31.1391 50.4707 30.5408 50.2145L28.3528 49.2774C27.0428 48.7163 26.2885 47.4099 26.4576 45.9948L26.7401 43.6315C26.8173 42.9852 26.716 42.4104 26.4223 41.8295L25.3486 39.7054C24.7058 38.4336 24.9677 36.9479 26.0068 35.9726L27.7423 34.3438C28.2169 33.8984 28.5087 33.3929 28.6571 32.7591L29.2 30.4418C29.525 29.0542 30.6807 28.0846 32.1036 28.0054L34.48 27.8732C35.1299 27.8371 35.6784 27.6374 36.1995 27.2473L38.1049 25.8211C39.2457 24.9672 40.7543 24.9672 41.8952 25.8212ZM38.7846 40.8161L36.7168 38.7484C36.1809 38.2124 35.3116 38.2124 34.7757 38.7484C34.2398 39.2843 34.2398 40.1535 34.7757 40.6895L37.817 43.7307C38.353 44.2666 39.2223 44.2667 39.7582 43.7307C41.5913 41.8975 43.4037 40.0438 45.2283 38.2022C45.7604 37.6652 45.7587 36.7987 45.2224 36.2654C44.686 35.732 43.817 35.7335 43.2844 36.2714L38.7846 40.8161ZM40 29.7782C37.1775 29.7782 34.622 30.9224 32.7723 32.7721C30.9225 34.6219 29.7784 37.1773 29.7784 39.9999C29.7784 42.8224 30.9225 45.3779 32.7723 47.2276C34.622 49.0774 37.1775 50.2215 40 50.2215C42.8226 50.2215 45.378 49.0774 47.2278 47.2276C49.0775 45.3779 50.2217 42.8224 50.2217 39.9999C50.2217 37.1773 49.0775 34.6219 47.2278 32.7721C45.378 30.9224 42.8226 29.7782 40 29.7782ZM46.5207 33.4792C44.852 31.8104 42.5465 30.7782 40 30.7782C37.4535 30.7782 35.1481 31.8104 33.4793 33.4792C31.8106 35.1479 30.7784 37.4534 30.7784 39.9999C30.7784 42.5464 31.8106 44.8518 33.4793 46.5205C35.1481 48.1893 37.4535 49.2215 40 49.2215C42.5465 49.2215 44.852 48.1893 46.5207 46.5206C48.1895 44.8519 49.2216 42.5464 49.2216 39.9999C49.2217 37.4534 48.1895 35.1479 46.5207 33.4792Z" fill="#FE6F46"/>
</svg>
