<svg width="24" height="25" viewBox="0 0 24 25" fill="none" xmlns="http://www.w3.org/2000/svg">
<rect y="0.994141" width="24" height="24" rx="12" fill="#BDBDC4"/>
<g clip-path="url(#clip0_4886_1820)">
<path d="M12.0007 6.32617C13.812 6.32617 14.038 6.33284 14.7487 6.36617C15.4587 6.39951 15.942 6.51084 16.3673 6.67617C16.8073 6.84551 17.178 7.07484 17.5487 7.44484C17.8876 7.7781 18.15 8.18123 18.3173 8.62617C18.482 9.05084 18.594 9.53484 18.6273 10.2448C18.6587 10.9555 18.6673 11.1815 18.6673 12.9928C18.6673 14.8042 18.6607 15.0302 18.6273 15.7408C18.594 16.4508 18.482 16.9342 18.3173 17.3595C18.1504 17.8047 17.8881 18.2079 17.5487 18.5408C17.2153 18.8797 16.8122 19.142 16.3673 19.3095C15.9427 19.4742 15.4587 19.5862 14.7487 19.6195C14.038 19.6508 13.812 19.6595 12.0007 19.6595C10.1893 19.6595 9.96332 19.6528 9.25265 19.6195C8.54265 19.5862 8.05932 19.4742 7.63398 19.3095C7.18887 19.1425 6.78567 18.8801 6.45265 18.5408C6.11359 18.2076 5.85127 17.8045 5.68398 17.3595C5.51865 16.9348 5.40732 16.4508 5.37398 15.7408C5.34265 15.0302 5.33398 14.8042 5.33398 12.9928C5.33398 11.1815 5.34065 10.9555 5.37398 10.2448C5.40732 9.53417 5.51865 9.05151 5.68398 8.62617C5.85081 8.18096 6.11319 7.77772 6.45265 7.44484C6.78577 7.10566 7.18894 6.84332 7.63398 6.67617C8.05932 6.51084 8.54198 6.39951 9.25265 6.36617C9.96332 6.33484 10.1893 6.32617 12.0007 6.32617ZM12.0007 9.65951C11.1166 9.65951 10.2687 10.0107 9.64363 10.6358C9.01851 11.2609 8.66732 12.1088 8.66732 12.9928C8.66732 13.8769 9.01851 14.7247 9.64363 15.3499C10.2687 15.975 11.1166 16.3262 12.0007 16.3262C12.8847 16.3262 13.7326 15.975 14.3577 15.3499C14.9828 14.7247 15.334 13.8769 15.334 12.9928C15.334 12.1088 14.9828 11.2609 14.3577 10.6358C13.7326 10.0107 12.8847 9.65951 12.0007 9.65951ZM16.334 9.49284C16.334 9.27182 16.2462 9.05986 16.0899 8.90358C15.9336 8.7473 15.7217 8.65951 15.5007 8.65951C15.2796 8.65951 15.0677 8.7473 14.9114 8.90358C14.7551 9.05986 14.6673 9.27182 14.6673 9.49284C14.6673 9.71385 14.7551 9.92581 14.9114 10.0821C15.0677 10.2384 15.2796 10.3262 15.5007 10.3262C15.7217 10.3262 15.9336 10.2384 16.0899 10.0821C16.2462 9.92581 16.334 9.71385 16.334 9.49284ZM12.0007 10.9928C12.5311 10.9928 13.0398 11.2036 13.4149 11.5786C13.7899 11.9537 14.0007 12.4624 14.0007 12.9928C14.0007 13.5233 13.7899 14.032 13.4149 14.4071C13.0398 14.7821 12.5311 14.9928 12.0007 14.9928C11.4702 14.9928 10.9615 14.7821 10.5864 14.4071C10.2114 14.032 10.0007 13.5233 10.0007 12.9928C10.0007 12.4624 10.2114 11.9537 10.5864 11.5786C10.9615 11.2036 11.4702 10.9928 12.0007 10.9928Z" fill="#1B1D33"/>
</g>
<defs>
<clipPath id="clip0_4886_1820">
<rect width="16" height="16" fill="white" transform="translate(4 4.99414)"/>
</clipPath>
</defs>
</svg>
