<svg width="24" height="25" viewBox="0 0 24 25" fill="none" xmlns="http://www.w3.org/2000/svg">
<rect y="0.994141" width="24" height="24" rx="12" fill="white"/>
<g clip-path="url(#clip0_4886_1826)">
<path d="M8.62565 8.32814C8.62547 8.68176 8.48483 9.02083 8.23466 9.27075C7.98448 9.52068 7.64527 9.66098 7.29165 9.66081C6.93803 9.66063 6.59896 9.51999 6.34904 9.26981C6.09911 9.01964 5.95881 8.68043 5.95898 8.32681C5.95916 7.97319 6.09981 7.63412 6.34998 7.38419C6.60015 7.13427 6.93936 6.99396 7.29298 6.99414C7.64661 6.99432 7.98567 7.13496 8.2356 7.38514C8.48552 7.63531 8.62583 7.97452 8.62565 8.32814ZM8.66565 10.6481H5.99898V18.9948H8.66565V10.6481ZM12.879 10.6481H10.2257V18.9948H12.8523V14.6148C12.8523 12.1748 16.0323 11.9481 16.0323 14.6148V18.9948H18.6657V13.7081C18.6657 9.59481 13.959 9.74814 12.8523 11.7681L12.879 10.6481Z" fill="#1B1D33"/>
</g>
<defs>
<clipPath id="clip0_4886_1826">
<rect width="16" height="16" fill="white" transform="translate(4 4.99414)"/>
</clipPath>
</defs>
</svg>
