<svg width="228" height="7" viewBox="0 0 228 7" fill="none" xmlns="http://www.w3.org/2000/svg">
<path fill-rule="evenodd" clip-rule="evenodd" d="M38.9825 4.77673C33.3912 4.99564 27.6103 5.22187 21.9211 5.39495C19.8604 5.45736 10.3384 5.67384 9.01224 5.6831C8.24236 5.68895 7.22974 5.76647 6.15878 5.84887C4.83154 5.95077 2.36354 6.14042 2.00308 5.94393C1.99537 5.93955 1.97807 5.90395 2.0385 5.81814C2.2979 5.45052 5.60871 5.1424 11.8792 4.90252C12.8283 4.86595 13.5128 4.83961 13.8753 4.81231C15.5266 4.68652 17.1913 4.57437 18.8634 4.47344C33.1099 4.2321 47.4189 3.56807 61.3674 2.91961C64.2875 2.78407 67.2316 2.64753 70.1914 2.51345C108.191 1.26237 144.132 1.28677 177.246 2.58807C177.358 2.59294 177.47 2.59683 177.581 2.60171C141.833 2.6373 100.588 2.89521 57.9712 4.10143C51.634 4.28086 45.202 4.53295 38.9825 4.77673ZM199.185 2.21752C200.643 2.29407 202.111 2.3594 203.582 2.42474C205.741 2.5203 207.972 2.61879 210.138 2.7553C210.835 2.79918 212.52 2.87573 214.469 2.96349C214.734 2.97568 215.013 2.98836 215.303 3.00152C214.568 2.98982 213.829 2.96981 213.105 2.9508C212.326 2.92983 211.547 2.90937 210.772 2.89767C200.923 2.75091 190.868 2.29601 181.144 1.85671C178.63 1.74262 176.12 1.6295 173.614 1.52078C170.557 1.38914 167.496 1.27212 164.425 1.16973C169.355 1.25408 174.193 1.38769 179.038 1.57247C181.776 1.67681 184.589 1.74652 187.308 1.81429C191.222 1.91181 195.27 2.01226 199.185 2.21752ZM218.461 2.11416C216.113 1.8972 213.322 1.64999 210.435 1.46325C208.084 1.31162 205.662 1.21314 203.32 1.11855C202.011 1.0659 200.706 1.01324 199.412 0.951318C195.312 0.755319 191.111 0.652922 187.047 0.55346C184.472 0.491052 181.809 0.425737 179.212 0.337976C171.517 0.0776188 163.585 -0.0272095 154.24 0.00594453L148.753 0.024957C131.8 0.081514 114.271 0.14049 97.0206 0.611474C92.3555 0.738727 87.6632 0.899644 82.9741 1.08004C72.8094 1.31797 62.9311 1.61538 53.4883 1.92693C50.4942 2.02591 47.4751 2.11221 44.4456 2.199C34.2121 2.49153 23.6317 2.7948 13.5117 3.60317C13.1429 3.63243 12.4293 3.66216 11.525 3.70019C10.6291 3.73773 9.73629 3.77722 8.86535 3.82208C7.55791 3.8367 6.2515 3.84839 4.94613 3.85571C4.62422 3.85766 4.36481 3.98151 4.36898 4.13265C4.36898 4.13753 4.37003 4.1424 4.37003 4.14678C2.01246 4.39446 0.323712 4.75917 0.0476375 5.34911C-0.0857116 5.63434 0.0622217 5.90199 0.474771 6.12286C1.77388 6.81909 5.9275 6.99999 9.89672 6.99999C12.3866 6.99999 14.8046 6.9288 16.3985 6.86932C30.9294 6.72354 45.7156 6.2116 60.0141 5.71673C66.617 5.48806 73.4449 5.25208 80.1446 5.0556C86.2558 4.87617 92.5982 4.65483 98.7333 4.44079C121.969 3.62998 145.998 2.79187 168.765 3.72457C186.278 4.44226 206.498 4.72699 227.238 4.54757C227.43 4.54611 227.608 4.50028 227.714 4.4252L227.903 4.29159C228.051 4.18676 228.028 4.04829 227.848 3.95565C227.102 3.57487 226.018 3.37256 224.773 3.2731C224.813 2.94887 224.266 2.65145 218.461 2.11416Z" fill="url(#paint0_linear_2314_10500)"/>
<defs>
<linearGradient id="paint0_linear_2314_10500" x1="85.5934" y1="1.7619" x2="156.61" y2="1.7619" gradientUnits="userSpaceOnUse">
<stop stop-color="#ED1915"/>
<stop offset="1" stop-color="#FB7103"/>
</linearGradient>
</defs>
</svg>
