<svg width="154" height="42" viewBox="0 0 154 42" fill="none" xmlns="http://www.w3.org/2000/svg">
<path d="M1.81121 23.2996L1.2815 23.5535C1.23415 23.5762 1.23432 23.6435 1.28183 23.6661L2.65511 24.3163C2.67249 24.3246 2.69285 24.3242 2.7099 24.3155L3.28448 24.0229C3.33149 23.9991 3.32934 23.9311 3.28083 23.9102L1.86286 23.2986C1.8463 23.2914 1.82743 23.2918 1.81121 23.2996Z" fill="white"/>
<path d="M9.18793 26.4933L8.45461 26.9622C8.41322 26.9886 8.4172 27.0501 8.46139 27.071L11.9077 28.703C11.9284 28.7128 11.9529 28.7105 11.9714 28.6967L12.7653 28.1084C12.8039 28.0799 12.7969 28.0202 12.7529 28.0011L9.2462 26.4885C9.22716 26.4804 9.20531 26.4822 9.18793 26.4933Z" fill="white"/>
<path d="M4.78089 24.5888L4.15782 24.9239C4.11279 24.948 4.11445 25.0131 4.16063 25.0349L6.24754 26.0234C6.26624 26.0321 6.28793 26.0311 6.3058 26.0207L6.98467 25.6216C7.02853 25.5958 7.02456 25.5309 6.97771 25.5107L4.83502 24.5865C4.81764 24.5789 4.79761 24.5799 4.78089 24.5888Z" fill="white"/>
<path d="M16.4217 29.6241L15.5821 30.3484C15.548 30.3777 15.5555 30.4324 15.5962 30.4518L22.1564 33.5584C22.1819 33.5705 22.2122 33.564 22.2304 33.5425L23.0812 32.5465C23.1084 32.5146 23.097 32.4654 23.0586 32.4488L16.4871 29.614C16.4653 29.6046 16.4398 29.6086 16.4217 29.6241Z" fill="white"/>
<path d="M0.0507812 22.5214C0.0653484 22.718 0.0830607 22.915 0.103256 23.1123L0.199929 23.1582L0.841213 22.8624L0.0507812 22.5214Z" fill="white"/>
<path d="M29.7328 37.1421L32.4165 38.4129C32.5168 38.4604 32.6356 38.452 32.7277 38.3899C33.1041 38.1355 33.4714 37.8695 33.8293 37.5924C34.0159 37.4479 33.9751 37.1535 33.7584 37.06L30.5585 35.6798C30.5293 35.6672 30.4954 35.6784 30.4797 35.7059L29.7055 37.0547C29.6873 37.0863 29.7 37.1265 29.7328 37.1421Z" fill="white"/>
<path d="M23.3778 41.8566C23.6597 41.8243 23.9396 41.7863 24.2175 41.7429C24.5002 41.6987 24.5787 41.3274 24.3384 41.172L0.552734 25.7732C2.93479 36.0213 12.6727 43.0793 23.3778 41.8566Z" fill="white"/>
<path d="M0.0147326 20.9823H0C0 21.0106 0.00115874 21.039 0.00115874 21.0673L37.9328 33.3809C37.9586 33.3458 37.9841 33.3107 38.0094 33.2754C38.028 33.2499 38.0434 33.2236 38.0614 33.1979C41.6716 28.0791 37.9429 20.9823 31.6524 20.9823H0.0147326Z" fill="white"/>
<path d="M5.80205 6.51872C3.64893 8.77977 2.00599 11.5096 1.02734 14.5146L20.9922 16.0723L40.9626 14.5146C39.9753 11.4669 38.3197 8.75279 36.1862 6.51872L20.9926 5.27274L5.80205 6.51872Z" fill="#AFAFAF"/>
<path d="M1.02849 14.4929C0.358564 16.5498 -0.0026341 18.734 1.44625e-05 20.9855H31.6524C37.9429 20.9855 41.6716 28.0823 38.0614 33.2012C40.5487 29.7263 41.9924 25.489 41.9871 20.9855C41.9861 20.1982 41.9455 19.4035 41.8542 18.6026C41.6914 17.179 41.389 15.8054 40.9637 14.4929H1.02849Z" fill="#C8C8C8"/>
<path d="M18.6122 0.137641C13.5271 0.718505 9.07799 3.07259 5.80469 6.50977H36.1889C32.3281 2.46706 26.8999 0.000414848 21.0197 0.000249386C20.2243 8.39233e-05 19.4213 0.0452728 18.6122 0.137641Z" fill="#C8C8C8"/>
<path d="M64 13.3373C62.2361 13.3373 61.0766 14.1691 60.7995 15.7566L59.9174 20.7465C59.6401 22.3343 60.4971 23.166 62.2614 23.166C64 23.166 65.1594 22.3343 65.4365 20.7465L66.3187 15.7566C66.5959 14.1691 65.739 13.3373 64 13.3373ZM64.6805 8.92712C69.6453 8.92712 71.9641 11.9261 71.2079 16.286L70.4266 20.8475C69.6453 25.182 66.5456 27.5762 61.5555 27.5762C56.5911 27.5762 54.2723 24.6528 55.0032 20.2931L55.8098 15.7316C56.5658 11.3967 59.6908 8.92712 64.6805 8.92712Z" fill="white"/>
<path d="M88.2144 10.3626L85.4172 26.1387C85.291 26.92 84.9633 27.1973 84.1568 27.1973H81.3845C80.8555 27.1973 80.6285 27.046 80.4523 26.6932L77.6547 20.7205C76.8737 19.0319 76.6214 17.797 76.3443 15.529H76.1425C76.2687 17.9483 76.319 19.2335 75.8404 22.0309L75.1094 26.1387C74.9583 26.92 74.6559 27.1973 73.8492 27.1973H71.2031C70.3968 27.1973 70.1699 26.92 70.3213 26.1387L73.0932 10.3626C73.2447 9.58132 73.5471 9.30404 74.3534 9.30404H77.2265C77.7808 9.30404 78.0326 9.45534 78.2094 9.80827L81.1829 16.2598C81.9138 17.8223 82.1407 19.1832 82.4933 20.8717H82.6951C82.3677 18.2759 82.2415 17.0663 82.6951 14.4957L83.4261 10.3626C83.5519 9.58132 83.8543 9.30404 84.6612 9.30404H87.3072C88.1136 9.30404 88.3405 9.58132 88.2144 10.3626Z" fill="white"/>
<path d="M90.7889 9.28451C89.9827 9.28451 89.6801 9.56179 89.5287 10.3429L86.7569 26.1191C86.6053 26.9005 86.8324 27.1777 87.6386 27.1777H93.8384C98.8281 27.1777 101.928 24.8591 102.709 20.4992L103.365 16.719C104.146 12.359 101.903 9.28451 96.913 9.28451H90.7889ZM93.9392 13.6949H95.9804C98.0218 13.6949 98.7526 14.6275 98.4252 16.4166L97.7948 20.0456C97.4674 21.8351 96.4341 22.7674 94.3927 22.7674H92.3262L93.9392 13.6949Z" fill="#959595"/>
<path d="M127.224 10.3178L120.571 26.2956C120.268 27.0264 119.84 27.1777 119.109 27.1777H115.984C115.278 27.1777 114.875 27.0013 114.825 26.3461L114.522 20.474C114.472 18.8864 114.598 17.3744 114.85 15.9379H114.623C114.321 17.3744 113.918 18.8359 113.287 20.474L110.919 26.2956C110.591 27.0264 110.163 27.1777 109.432 27.1777H106.407C105.702 27.1777 105.299 27.0264 105.248 26.3461L104.24 10.3178C104.19 9.61211 104.316 9.28451 105.097 9.28451H108.146C109.053 9.28451 109.381 9.43581 109.432 10.2171L109.407 16.8199C109.381 18.1304 109.079 20.5749 108.953 21.2805H109.129C109.28 20.5244 109.86 18.1807 110.389 16.8199L113.111 10.2171C113.439 9.41065 113.892 9.28451 114.674 9.28451H117.37C118.176 9.28451 118.58 9.43581 118.63 10.2171L118.983 16.8199C119.059 18.2564 118.807 20.5244 118.706 21.2805H118.907C119.033 20.5749 119.613 18.2059 120.042 16.8199L122.284 10.2171C122.562 9.43581 122.99 9.28451 123.872 9.28451H126.72C127.501 9.28451 127.526 9.61211 127.224 10.3178Z" fill="white"/>
<path d="M132.413 13.8713H132.186C132.186 13.8713 131.858 15.6859 131.052 17.3746L129.615 20.3482H132.74L132.337 17.3996C132.136 15.6859 132.413 13.8713 132.413 13.8713ZM137.755 27.1777H135.135C133.849 27.1777 133.522 26.9006 133.446 26.1193L133.194 24.3049H127.725L126.843 26.1193C126.465 26.9006 126.087 27.1777 124.827 27.1777H122.055C121.274 27.1777 121.198 26.825 121.576 26.1446L130.195 10.1668C130.573 9.43598 130.926 9.28468 131.657 9.28468H134.505C135.235 9.28468 135.563 9.46114 135.689 10.1165L138.688 26.1446C138.814 26.825 138.537 27.1777 137.755 27.1777Z" fill="white"/>
<path d="M153.354 10.3431L145.793 20.2473L144.785 26.1191C144.634 26.9005 144.306 27.1777 143.525 27.1777H140.652C139.871 27.1777 139.644 26.9005 139.795 26.1191L140.803 20.2473L136.771 10.3431C136.519 9.76341 136.695 9.28451 137.477 9.28451H140.4C141.66 9.28451 142.013 9.335 142.341 10.2171L144.13 15.3582L147.835 10.2171C148.44 9.335 148.818 9.28451 150.053 9.28451H153.001C153.782 9.28451 153.807 9.76341 153.354 10.3431Z" fill="white"/>
<path d="M57.3276 28.7919C58.1121 28.7919 58.4958 29.0688 58.6832 29.6745C58.7131 29.7671 58.6721 29.8362 58.5668 29.8765L58.3052 29.9862C58.1875 30.0322 58.1549 30.0207 58.1223 29.9112C57.9849 29.513 57.7404 29.3286 57.2329 29.3286C56.5926 29.3286 56.2309 29.5477 56.1546 29.9801C56.1006 30.2862 56.2577 30.4418 56.531 30.5284C56.7322 30.5975 56.8734 30.6148 57.1452 30.6436C57.4668 30.6841 57.6532 30.707 57.9164 30.8167C58.0505 30.8745 58.148 30.9435 58.2211 31.0188C58.361 31.1744 58.4517 31.4454 58.3877 31.8088C58.2503 32.5878 57.5901 33.0605 56.5689 33.0605C55.7211 33.0605 55.3099 32.7434 55.1682 32.0743C55.1472 31.9645 55.1783 31.9185 55.3008 31.8781L55.5527 31.7916C55.6577 31.751 55.7057 31.7743 55.7325 31.8838C55.8465 32.3165 56.1541 32.5356 56.6616 32.5356C57.3537 32.5356 57.7418 32.2992 57.8262 31.8204C57.8679 31.5838 57.7924 31.4224 57.5953 31.3302C57.3969 31.2438 57.2349 31.2147 56.9189 31.1744C56.6241 31.1455 56.4896 31.1225 56.2309 31.0533C56.0975 31.0245 55.996 30.9783 55.9187 30.9263C55.6787 30.782 55.469 30.4994 55.5774 30.0149C55.7077 29.2766 56.3526 28.7919 57.3276 28.7919Z" fill="white"/>
<path d="M62.4199 30.2686C62.5287 29.6515 62.2078 29.311 61.5331 29.311C60.8582 29.311 60.4174 29.6515 60.3085 30.2686L60.0766 31.584C59.9677 32.2013 60.2886 32.5414 60.9635 32.5414C61.6382 32.5414 62.0791 32.2013 62.188 31.584L62.4199 30.2686ZM59.749 30.2686C59.9117 29.3458 60.5921 28.7919 61.6247 28.7919C62.6571 28.7919 63.1421 29.3458 62.9794 30.2686L62.7475 31.584C62.5848 32.507 61.9044 33.0605 60.872 33.0605C59.8394 33.0605 59.3543 32.507 59.5171 31.584L59.749 30.2686Z" fill="white"/>
<path d="M64.9405 28.8752C65.056 28.8752 65.0893 28.9154 65.0699 29.0252L64.4657 32.4514H66.277C66.3924 32.4514 66.4256 32.492 66.4063 32.6014L66.3677 32.8207C66.3483 32.9301 66.3008 32.9707 66.1855 32.9707H63.9646C63.855 32.9707 63.8218 32.9301 63.8411 32.8207L64.5104 29.0252C64.5298 28.9154 64.5771 28.8752 64.6869 28.8752H64.9405Z" fill="white"/>
<path d="M68.089 31.578C67.9822 32.1837 68.2709 32.5413 68.94 32.5413C69.6093 32.5413 70.0243 32.1837 70.131 31.578L70.5805 29.0286C70.5998 28.9187 70.6473 28.8786 70.7627 28.8786H71.0165C71.1261 28.8786 71.1593 28.9187 71.14 29.0286L70.6915 31.5722C70.5287 32.4954 69.8811 33.0605 68.8485 33.0605C67.8276 33.0605 67.3734 32.4954 67.5363 31.5722L67.9847 29.0286C68.0041 28.9187 68.0458 28.8786 68.1612 28.8786H68.4149C68.5303 28.8786 68.558 28.9187 68.5386 29.0286L68.089 31.578Z" fill="white"/>
<path d="M75.1034 28.8752C75.213 28.8752 75.2462 28.9154 75.2269 29.0252L75.1883 29.2443C75.1689 29.3538 75.1214 29.3943 75.0118 29.3943H73.9216L73.3176 32.8207C73.2982 32.9301 73.2565 32.9707 73.1411 32.9707H72.8874C72.772 32.9707 72.7445 32.9301 72.7637 32.8207L73.3679 29.3943H72.2777C72.1623 29.3943 72.1348 29.3538 72.154 29.2443L72.1928 29.0252C72.2121 28.9154 72.2539 28.8752 72.3691 28.8752H75.1034Z" fill="white"/>
<path d="M76.3131 29.0252C76.3325 28.9154 76.38 28.8752 76.4896 28.8752H76.7434C76.8587 28.8752 76.892 28.9154 76.8726 29.0252L76.2034 32.8207C76.184 32.9301 76.1367 32.9707 76.0213 32.9707H75.7674C75.6578 32.9707 75.6245 32.9301 75.6439 32.8207L76.3131 29.0252Z" fill="white"/>
<path d="M80.629 30.2686C80.7378 29.6515 80.4171 29.311 79.7422 29.311C79.0673 29.311 78.6264 29.6515 78.5176 30.2686L78.2857 31.584C78.1768 32.2013 78.4977 32.5414 79.1726 32.5414C79.8475 32.5414 80.2882 32.2013 80.3971 31.584L80.629 30.2686ZM77.9581 30.2686C78.1208 29.3458 78.8012 28.7919 79.8338 28.7919C80.8664 28.7919 81.3511 29.3458 81.1883 30.2686L80.9564 31.584C80.7937 32.507 80.1137 33.0605 79.0811 33.0605C78.0485 33.0605 77.5635 32.507 77.7262 31.584L77.9581 30.2686Z" fill="white"/>
<path d="M85.7375 28.8752C85.8472 28.8752 85.8803 28.9154 85.861 29.0252L85.1917 32.8207C85.1725 32.9301 85.1252 32.9707 85.0154 32.9707H84.7616C84.6925 32.9707 84.6444 32.9477 84.6191 32.8957L83.3973 30.5019C83.3293 30.3634 83.2629 30.1844 83.1988 29.9594L83.0866 29.6135H83.0578C83.0568 29.6193 83.0507 29.7517 83.0394 30.0114C83.0225 30.2708 83.0002 30.4958 82.9666 30.6863L82.5903 32.8207C82.5709 32.9301 82.5236 32.9707 82.4081 32.9707H82.1717C82.0619 32.9707 82.0288 32.9301 82.0482 32.8207L82.7174 29.0252C82.7366 28.9154 82.784 28.8752 82.8937 28.8752H83.1475C83.2167 28.8752 83.2647 28.8982 83.2842 28.9502L84.4902 31.3034C84.5666 31.4595 84.6436 31.6439 84.7138 31.8689C84.7835 32.0939 84.8199 32.215 84.8236 32.2266H84.8524C84.8543 32.215 84.8616 32.0766 84.8797 31.8111C84.8964 31.5517 84.9209 31.3152 84.9565 31.1132L85.3246 29.0252C85.344 28.9154 85.3859 28.8752 85.5011 28.8752H85.7375Z" fill="white"/>
<path d="M88.7339 28.7919C89.5182 28.7919 89.9021 29.0688 90.0895 29.6745C90.1195 29.7671 90.0782 29.8362 89.9731 29.8765L89.7116 29.9862C89.5937 30.0322 89.5613 30.0207 89.5287 29.9112C89.3911 29.513 89.1469 29.3286 88.6392 29.3286C87.9989 29.3286 87.6373 29.5477 87.5611 29.9801C87.5071 30.2862 87.6641 30.4418 87.9374 30.5284C88.1385 30.5975 88.2797 30.6148 88.5517 30.6436C88.8731 30.6841 89.0595 30.707 89.3229 30.8167C89.457 30.8745 89.5543 30.9435 89.6275 31.0188C89.7672 31.1744 89.8579 31.4454 89.7938 31.8088C89.6566 32.5878 88.9966 33.0605 87.9754 33.0605C87.1274 33.0605 86.7162 32.7434 86.5743 32.0743C86.5535 31.9645 86.5846 31.9185 86.7073 31.8781L86.9591 31.7916C87.064 31.751 87.112 31.7743 87.139 31.8838C87.2529 32.3165 87.5604 32.5356 88.068 32.5356C88.7601 32.5356 89.1481 32.2992 89.2325 31.8204C89.2742 31.5838 89.1986 31.4224 89.0014 31.3302C88.8034 31.2438 88.6411 31.2147 88.3252 31.1744C88.0304 31.1455 87.896 31.1225 87.6371 31.0533C87.5037 31.0245 87.4024 30.9783 87.3251 30.9263C87.085 30.782 86.8755 30.4994 86.9837 30.0149C87.114 29.2766 87.7591 28.7919 88.7339 28.7919Z" fill="white"/>
<path d="M94.6818 30.9634C95.1837 30.9634 95.5289 30.6749 95.6153 30.1846C95.7017 29.6944 95.4603 29.3945 94.9584 29.3945H93.8796L93.603 30.9634H94.6818ZM95.102 28.8754C95.9154 28.8754 96.3413 29.3711 96.198 30.1846C96.0554 30.9922 95.4671 31.4825 94.6423 31.4825H93.5115L93.2754 32.8209C93.2562 32.9303 93.2089 32.9707 93.0934 32.9707H92.8396C92.7298 32.9707 92.6969 32.9303 92.7161 32.8209L93.3854 29.0253C93.4047 28.9156 93.4521 28.8754 93.5618 28.8754H95.102Z" fill="white"/>
<path d="M99.2326 29.3945H98.073L97.8239 30.8077H98.9834C99.439 30.8077 99.7446 30.5479 99.8229 30.1038C99.9032 29.6481 99.6883 29.3945 99.2326 29.3945ZM99.3761 28.8754C100.155 28.8754 100.543 29.3253 100.406 30.1038C100.297 30.7212 99.9128 31.1306 99.3549 31.2519C99.4488 31.3096 99.5274 31.4191 99.5865 31.5747L100.008 32.8151C100.042 32.9187 100.009 32.9707 99.9 32.9707H99.6461C99.4559 32.9707 99.4021 32.9479 99.3695 32.8381L99.0308 31.7825C98.9245 31.4364 98.7706 31.3269 98.3498 31.3269H97.7323L97.4688 32.8209C97.4496 32.9303 97.4023 32.9707 97.2867 32.9707H97.0331C96.9232 32.9707 96.8903 32.9303 96.9095 32.8209L97.5787 29.0253C97.5981 28.9156 97.6454 28.8754 97.7552 28.8754H99.3761Z" fill="white"/>
<path d="M101.883 29.0252C101.903 28.9154 101.95 28.8752 102.06 28.8752H102.313C102.429 28.8752 102.462 28.9154 102.443 29.0252L101.773 32.8207C101.754 32.9301 101.707 32.9707 101.591 32.9707H101.338C101.228 32.9707 101.195 32.9301 101.214 32.8207L101.883 29.0252Z" fill="white"/>
<path d="M106.994 28.8752C107.104 28.8752 107.123 28.9268 107.066 29.0252L104.95 32.8437C104.906 32.9301 104.841 32.9707 104.743 32.9707H104.507C104.409 32.9707 104.353 32.9301 104.338 32.8494L103.57 29.0252C103.553 28.9268 103.597 28.8752 103.7 28.8752H103.925C104.11 28.8752 104.152 28.8982 104.173 29.0076L104.688 31.7767C104.722 31.9786 104.734 32.3016 104.739 32.3072H104.762C104.77 32.2958 104.895 31.9786 104.999 31.7823L106.48 29.0076C106.54 28.8982 106.596 28.8752 106.781 28.8752H106.994Z" fill="white"/>
<path d="M109.19 29.925C109.157 29.7231 109.154 29.5387 109.182 29.3826H109.147L109.127 29.4633C109.104 29.5615 109.034 29.7636 108.954 29.9192L108.103 31.442H109.499L109.19 29.925ZM110.375 32.8207C110.393 32.9187 110.349 32.9707 110.245 32.9707H110.02C109.836 32.9707 109.788 32.9477 109.767 32.8379L109.575 31.8975H107.867L107.344 32.8379C107.284 32.9477 107.228 32.9707 107.044 32.9707H106.842C106.738 32.9707 106.712 32.9187 106.764 32.8207L108.94 28.9904C108.983 28.904 109.054 28.8634 109.152 28.8634H109.383C109.481 28.8634 109.537 28.904 109.552 28.9846L110.375 32.8207Z" fill="white"/>
<path d="M114.178 28.8752C114.287 28.8752 114.32 28.9154 114.301 29.0252L114.263 29.2443C114.243 29.3538 114.196 29.3943 114.086 29.3943H112.996L112.392 32.8207C112.372 32.9301 112.331 32.9707 112.215 32.9707H111.962C111.846 32.9707 111.819 32.9301 111.838 32.8207L112.442 29.3943H111.352C111.237 29.3943 111.209 29.3538 111.228 29.2443L111.267 29.0252C111.286 28.9154 111.328 28.8752 111.443 28.8752H114.178Z" fill="white"/>
<path d="M117.881 28.8752C117.996 28.8752 118.023 28.9154 118.004 29.0252L117.966 29.2443C117.946 29.3538 117.905 29.3943 117.789 29.3943H115.88L115.661 30.6343H117.305C117.42 30.6343 117.448 30.6749 117.428 30.7901L117.39 31.0035C117.37 31.119 117.329 31.1535 117.214 31.1535H115.57L115.341 32.4514H117.319C117.435 32.4514 117.462 32.492 117.443 32.6014L117.404 32.8207C117.385 32.9301 117.343 32.9707 117.228 32.9707H114.84C114.73 32.9707 114.697 32.9301 114.716 32.8207L115.385 29.0252C115.405 28.9154 115.452 28.8752 115.562 28.8752H117.881Z" fill="white"/>
<path d="M121.605 28.8752C121.72 28.8752 121.753 28.9154 121.734 29.0252L121.13 32.4514H122.941C123.056 32.4514 123.09 32.492 123.07 32.6014L123.032 32.8207C123.012 32.9301 122.965 32.9707 122.85 32.9707H120.629C120.519 32.9707 120.486 32.9301 120.505 32.8207L121.174 29.0252C121.194 28.9154 121.241 28.8752 121.351 28.8752H121.605Z" fill="white"/>
<path d="M124.778 29.0252C124.797 28.9154 124.845 28.8752 124.954 28.8752H125.208C125.324 28.8752 125.357 28.9154 125.337 29.0252L124.668 32.8207C124.649 32.9301 124.601 32.9707 124.486 32.9707H124.232C124.122 32.9707 124.089 32.9301 124.109 32.8207L124.778 29.0252Z" fill="white"/>
<path d="M130.432 28.8752C130.542 28.8752 130.575 28.9154 130.556 29.0252L129.887 32.8207C129.868 32.9301 129.82 32.9707 129.71 32.9707H129.48C129.364 32.9707 129.337 32.9301 129.356 32.8207L129.723 30.7383C129.779 30.4208 129.878 30.0578 130.018 29.6537H129.99C129.827 29.9537 129.614 30.2769 129.357 30.6227L128.395 31.9267C128.341 32.0017 128.271 32.0361 128.196 32.0361H128.052C127.977 32.0361 127.92 32.0017 127.893 31.9267L127.381 30.6113C127.264 30.323 127.176 30.0056 127.117 29.6537H127.082C127.081 30.0172 127.046 30.3806 126.983 30.7383L126.616 32.8207C126.597 32.9301 126.555 32.9707 126.44 32.9707H126.22C126.111 32.9707 126.078 32.9301 126.097 32.8207L126.766 29.0252C126.786 28.9154 126.833 28.8752 126.943 28.8752H127.145C127.266 28.8752 127.302 28.8982 127.337 28.9904L128.248 31.3498L129.984 28.9962C130.054 28.8982 130.092 28.8752 130.213 28.8752H130.432Z" fill="white"/>
<path d="M131.985 29.0252C132.004 28.9154 132.052 28.8752 132.161 28.8752H132.415C132.531 28.8752 132.564 28.9154 132.544 29.0252L131.875 32.8207C131.856 32.9301 131.808 32.9707 131.693 32.9707H131.439C131.33 32.9707 131.296 32.9301 131.316 32.8207L131.985 29.0252Z" fill="white"/>
<path d="M136.539 28.8752C136.649 28.8752 136.682 28.9154 136.662 29.0252L136.624 29.2443C136.604 29.3538 136.557 29.3943 136.447 29.3943H135.357L134.753 32.8207C134.734 32.9301 134.692 32.9707 134.577 32.9707H134.323C134.207 32.9707 134.18 32.9301 134.199 32.8207L134.803 29.3943H133.713C133.598 29.3943 133.57 29.3538 133.59 29.2443L133.628 29.0252C133.648 28.9154 133.69 28.8752 133.805 28.8752H136.539Z" fill="white"/>
<path d="M140.24 28.8752C140.356 28.8752 140.383 28.9154 140.363 29.0252L140.325 29.2443C140.306 29.3538 140.264 29.3943 140.148 29.3943H138.239L138.02 30.6343H139.665C139.78 30.6343 139.807 30.6749 139.787 30.7901L139.75 31.0035C139.729 31.119 139.688 31.1535 139.573 31.1535H137.929L137.7 32.4514H139.679C139.794 32.4514 139.822 32.492 139.802 32.6014L139.764 32.8207C139.744 32.9301 139.703 32.9707 139.587 32.9707H137.199C137.089 32.9707 137.056 32.9301 137.075 32.8207L137.745 29.0252C137.764 28.9154 137.811 28.8752 137.921 28.8752H140.24Z" fill="white"/>
<path d="M143.927 30.3922C144.04 29.7517 143.705 29.3943 142.989 29.3943H142.141L141.602 32.4516H142.45C143.166 32.4516 143.627 32.0939 143.74 31.4534L143.927 30.3922ZM143.081 28.8752C144.142 28.8752 144.652 29.4518 144.485 30.398L144.3 31.4476C144.133 32.3938 143.42 32.9707 142.359 32.9707H141.101C140.992 32.9707 140.959 32.9301 140.978 32.8207L141.647 29.0252C141.666 28.9154 141.714 28.8752 141.824 28.8752H143.081Z" fill="white"/>
</svg>
