<svg width="134" height="50" viewBox="0 0 134 50" fill="none" xmlns="http://www.w3.org/2000/svg">
<path d="M73.8849 50.0017V45.1406H74.9699C75.5482 45.1406 75.977 45.2631 76.2526 45.5053C76.5294 45.7489 76.6678 46.1245 76.6678 46.6349C76.6678 47.1057 76.5282 47.4759 76.2501 47.744C75.9721 48.0121 75.5865 48.1454 75.0934 48.1454H74.8339V50.0017H73.8849V50.0017ZM74.8352 47.3357H74.9711C75.2281 47.3357 75.416 47.2772 75.5321 47.1602C75.6483 47.0431 75.7064 46.854 75.7064 46.5954C75.7064 46.3559 75.6483 46.1817 75.5321 46.0728C75.416 45.964 75.2281 45.9082 74.9711 45.9082H74.8352V47.3357Z" fill="#585655"/>
<path d="M78.0568 50.0017V45.1406H79.1284V49.1185H80.8397V50.0017H78.0568Z" fill="#585655"/>
<path d="M80.8419 50.0017L82.413 45.1406H83.4222L85.0163 50.0017H84.0117L83.6765 48.9688H82.0766L81.7887 50.0017H80.8419ZM83.4707 48.1522L83.0083 46.5818C82.9956 46.5355 82.9783 46.4552 82.9574 46.3423C82.9366 46.2293 82.9147 46.0905 82.8927 45.9272C82.8684 46.0851 82.8441 46.2252 82.8222 46.3504C82.7991 46.4756 82.7829 46.5587 82.7713 46.6008L82.3251 48.1509H83.4707V48.1522Z" fill="#585655"/>
<path d="M86.4083 50.0017V45.1406H87.3897L89.3463 47.9699C89.4032 48.0502 89.4639 48.1618 89.5319 48.3074C89.6 48.453 89.6693 48.6231 89.7423 48.8204C89.7201 48.6762 89.704 48.5333 89.6941 48.3918C89.6842 48.2502 89.6792 48.0733 89.6792 47.861V45.1406H90.5827V50.0017H89.6557L87.6446 47.1193C87.5877 47.039 87.527 46.9275 87.4602 46.7818C87.3934 46.6376 87.3228 46.4634 87.2486 46.262C87.2709 46.4022 87.287 46.5423 87.2969 46.6852C87.3068 46.8281 87.3117 47.0077 87.3117 47.2255V50.0017H86.4083V50.0017Z" fill="#585655"/>
<path d="M95.6451 50.0017V47.7841L94.0587 45.142H95.2321L95.927 46.4726C95.9611 46.5392 95.9965 46.6236 96.0319 46.7242C96.0686 46.8263 96.1053 46.9433 96.1433 47.0766C96.1734 46.9637 96.2062 46.8576 96.2442 46.7583C96.281 46.6589 96.3242 46.561 96.3714 46.4657L97.061 45.1406H98.2331L96.6467 47.7827V50.0003H95.6451V50.0017Z" fill="#585655"/>
<path d="M103.107 47.5724C103.107 47.9032 103.045 48.217 102.924 48.5127C102.803 48.8085 102.628 49.0678 102.399 49.2909C102.162 49.5205 101.896 49.6969 101.599 49.8188C101.301 49.9407 100.995 50.0017 100.677 50.0017C100.398 50.0017 100.126 49.9537 99.8581 49.8577C99.5912 49.7617 99.3474 49.6242 99.1239 49.444C98.8366 49.2118 98.6182 48.9342 98.465 48.6126C98.3118 48.2897 98.2365 47.9421 98.2365 47.5711C98.2365 47.2378 98.2965 46.9252 98.4165 46.6334C98.5365 46.3416 98.714 46.0809 98.9464 45.8527C99.175 45.627 99.4406 45.4519 99.7419 45.3274C100.045 45.2029 100.355 45.1406 100.675 45.1406C100.993 45.1406 101.302 45.2029 101.602 45.3274C101.902 45.4519 102.168 45.627 102.398 45.8527C102.629 46.0809 102.804 46.3416 102.924 46.6347C103.047 46.9291 103.107 47.2417 103.107 47.5724ZM100.677 49.121C101.09 49.121 101.431 48.9732 101.701 48.6787C101.97 48.3843 102.104 48.016 102.104 47.5724C102.104 47.1341 101.968 46.7644 101.696 46.4648C101.424 46.1652 101.084 46.0148 100.677 46.0148C100.263 46.0148 99.9207 46.1639 99.6487 46.4622C99.3767 46.7605 99.2401 47.1302 99.2401 47.5711C99.2401 48.0186 99.3742 48.3882 99.6423 48.68C99.9092 48.9745 100.254 49.121 100.677 49.121Z" fill="#585655"/>
<path d="M108.671 45.1406V48.0867C108.671 48.7294 108.497 49.2091 108.153 49.5259C107.808 49.8426 107.287 50.0017 106.592 50.0017C105.885 50.0017 105.359 49.8426 105.014 49.5259C104.668 49.2091 104.496 48.7294 104.496 48.0867V45.1406H105.523V47.9276C105.523 48.3173 105.611 48.6115 105.787 48.8089C105.963 49.0064 106.226 49.1045 106.575 49.1045C106.927 49.1045 107.193 49.0051 107.373 48.8076C107.553 48.6088 107.644 48.3159 107.644 47.9276V45.1406H108.671Z" fill="#585655"/>
<path d="M112.848 50.0017H111.662L110.398 47.7304V50.0017H109.369V45.1406H110.841C111.425 45.1406 111.864 45.2549 112.155 45.4849C112.445 45.7149 112.591 46.0592 112.591 46.5192C112.591 46.854 112.491 47.1384 112.292 47.3765C112.093 47.6133 111.836 47.7521 111.521 47.7916L112.848 50.0017ZM110.398 47.2132H110.553C110.969 47.2132 111.243 47.167 111.377 47.0758C111.51 46.9846 111.577 46.824 111.577 46.5954C111.577 46.3559 111.506 46.1871 111.362 46.0864C111.218 45.9857 110.948 45.9354 110.551 45.9354H110.396V47.2132H110.398Z" fill="#585655"/>
<path d="M115.627 50.0003L116.339 45.1406H117.386L118.287 48.0017C118.307 48.0616 118.326 48.1487 118.348 48.2643C118.371 48.3786 118.392 48.5106 118.411 48.6589C118.428 48.5078 118.448 48.3745 118.469 48.2562C118.49 48.1378 118.511 48.0507 118.529 47.9949L119.445 45.1406H120.477L121.193 50.0003H120.244L119.902 47.0698C119.877 46.8535 119.86 46.6889 119.851 46.5787C119.843 46.4685 119.838 46.3651 119.838 46.2698C119.838 46.2195 119.838 46.1814 119.839 46.1555C119.841 46.1297 119.842 46.1079 119.845 46.0875C119.813 46.278 119.782 46.4426 119.753 46.58C119.724 46.7188 119.698 46.8236 119.674 46.8943L118.685 50.0017H118.122L117.148 46.8943C117.139 46.8657 117.121 46.7855 117.092 46.6549C117.063 46.5242 117.024 46.3338 116.971 46.0835V46.2263C116.971 46.4521 116.952 46.7283 116.914 47.0562L116.911 47.0698L116.572 50.0003H115.627V50.0003Z" fill="#585655"/>
<path d="M122.586 50.0017V45.1406H125.369V46.017H123.596V47.0159H125.369V47.8991H123.596V49.1171H125.369V50.0003H122.586V50.0017Z" fill="#585655"/>
<path d="M126.065 50.0017L127.636 45.1406H128.645L130.239 50.0017H129.234L128.899 48.9688H127.299L127.011 50.0017H126.065ZM128.693 48.1522L128.231 46.5818C128.218 46.5355 128.201 46.4552 128.18 46.3423C128.159 46.2293 128.137 46.0905 128.115 45.9272C128.091 46.0851 128.067 46.2252 128.045 46.3504C128.022 46.4756 128.006 46.5587 127.994 46.6008L127.548 48.1509H128.693V48.1522Z" fill="#585655"/>
<path d="M130.934 50.0017V45.1406H132.005V49.1185H133.717V50.0017H130.934Z" fill="#585655"/>
<path d="M68.3943 0L58.7602 4.9566L62.0882 5.6767L59.9579 15.5577C58.3639 14.4578 56.2985 13.8354 55.4321 13.6523C51.9578 12.9186 48.7422 13.5545 45.7855 15.5577C44.369 16.5203 43.165 17.7453 42.1661 19.2312C41.161 20.7172 40.4783 22.3022 40.122 23.9725C39.3607 27.4766 39.9295 30.7566 41.8223 33.8214C43.8077 37.0631 46.8044 39.0997 50.8013 39.9448C54.7583 40.7824 58.3714 40.0363 61.6332 37.7114C64.3724 35.7726 66.1452 32.9244 66.9528 29.1729L71.5711 7.75287L74.5816 8.43339L68.3943 0ZM53.7506 30.9373C51.5039 30.9373 49.6824 29.1345 49.6824 26.9111C49.6824 24.6877 51.5039 22.885 53.7506 22.885C55.9972 22.885 57.8188 24.6877 57.8188 26.9111C57.8188 29.1345 55.9972 30.9373 53.7506 30.9373Z" fill="#585655"/>
<path d="M9.62992 16.6641C10.7626 16.6641 11.8666 16.8834 12.9394 17.3221C14.0122 17.7608 14.9528 18.382 15.7587 19.1847C17.4041 20.8009 18.2274 22.7334 18.2274 24.9807C18.2274 26.0627 18.0066 27.119 17.565 28.152C17.1234 29.185 16.4997 30.093 15.6938 30.8736C14.016 32.5119 11.9726 33.3305 9.5638 33.3305C7.10133 33.3305 5.01932 32.496 3.31904 30.8258C1.66242 29.1874 0.834106 27.2501 0.834106 25.0126C0.834106 23.8987 1.0599 22.8204 1.51272 21.7764C1.96555 20.7323 2.60051 19.8317 3.41759 19.0707C5.14033 17.4667 7.21111 16.6641 9.62992 16.6641ZM9.49893 22.6696C8.86647 22.6696 8.32758 22.889 7.88099 23.3277C7.41194 23.7884 7.17867 24.3398 7.17867 24.9819C7.17867 25.624 7.41319 26.1755 7.88099 26.6362C8.3388 27.0969 8.89517 27.3261 9.54884 27.3261C10.2137 27.3261 10.7688 27.0957 11.2167 26.6362C11.6633 26.1755 11.8866 25.6302 11.8866 24.9979C11.8866 24.3447 11.652 23.7933 11.1842 23.3436C10.714 22.8939 10.1526 22.6696 9.49893 22.6696Z" fill="#585655"/>
<path d="M35.6207 33.3305H29.4185V24.4679C29.4185 23.7291 29.3135 23.2255 29.1034 22.9584C28.849 22.6263 28.4732 22.4609 27.9759 22.4609C27.4228 22.4609 27.0255 22.6533 26.7825 23.0392C26.6053 23.2966 26.5167 23.772 26.5167 24.4679V33.3305H20.3146V23.9692C20.3146 21.711 20.8954 19.9773 22.0559 18.7667C23.4049 17.3649 25.3778 16.6641 27.9759 16.6641C30.8055 16.6641 32.8847 17.4887 34.2109 19.1367C35.1499 20.3142 35.6207 21.9255 35.6207 23.9692V33.3305V33.3305Z" fill="#585655"/>
<path d="M90.8048 17.3594H96.844V26.3838C96.844 27.7258 96.6715 28.8069 96.3277 29.626C95.7781 30.946 94.8798 31.9309 93.6303 32.5805C92.6729 33.0803 91.5577 33.3313 90.2885 33.3313C88.9108 33.3313 87.7476 33.0437 86.8012 32.4684C86.4464 32.2453 86.0262 31.8992 85.5419 31.4299C84.9714 31.8882 84.4871 32.2283 84.0891 32.4525C83.0565 33.0376 81.8994 33.3313 80.6178 33.3313C78.5292 33.3313 76.8398 32.6658 75.5472 31.3348C74.4382 30.1952 73.8849 28.6838 73.8849 26.7982V17.3594H79.9241V25.8561C79.9241 26.9957 80.3332 27.5649 81.1514 27.5649C81.6566 27.5649 82.0128 27.3516 82.2173 26.9262C82.3036 26.7349 82.3467 26.346 82.3467 25.761V17.3594H88.3859V25.761C88.3859 26.964 88.7999 27.5661 89.6292 27.5661C90.1345 27.5661 90.4906 27.3321 90.6951 26.8628C90.7703 26.6922 90.8085 26.2827 90.8085 25.633V17.3594H90.8048Z" fill="#585655"/>
<path d="M116.325 33.4793H110.147V26.5111C110.147 25.5161 109.987 24.7883 109.668 24.3276C109.229 23.6855 108.568 23.3645 107.687 23.3645C107.071 23.3645 106.536 23.563 106.085 23.9588C105.59 24.3864 105.341 24.9378 105.341 25.6117C105.341 26.2758 105.567 26.8272 106.018 27.2658C106.458 27.6837 106.987 27.892 107.604 27.892C108.133 27.892 108.645 27.7854 109.14 27.5709V33.4793C108.578 33.8432 107.841 34.0258 106.927 34.0258C104.559 34.0258 102.572 33.0946 100.964 31.2321C99.6099 29.6699 98.9318 27.8503 98.9318 25.7734C98.9318 23.28 99.8393 21.2239 101.657 19.6078C103.342 18.1092 105.361 17.3594 107.719 17.3594C110.471 17.3594 112.69 18.3494 114.375 20.3295C115.675 21.8599 116.324 23.7762 116.324 26.0773V33.4793H116.325Z" fill="#585655"/>
<path d="M121.428 40.3296V35.1234C122.257 35.4656 122.982 35.6355 123.604 35.6355C125.589 35.6355 126.876 34.5403 127.466 32.3522C126.397 32.9719 125.35 33.2812 124.324 33.2812C122.808 33.2812 121.559 32.7287 120.578 31.6236C119.596 30.5186 119.106 29.1116 119.106 27.4026V17.3594H125.225V25.9455C125.225 26.8966 125.628 27.3709 126.436 27.3709C127.21 27.3709 127.598 26.8477 127.598 25.8013V17.3594H133.716V31.615C133.716 34.2738 132.952 36.4203 131.425 38.0547C129.603 39.9983 127.4 40.9701 124.815 40.9701C123.679 40.9701 122.552 40.7562 121.428 40.3296Z" fill="#585655"/>
<path d="M59.2744 20.2026C58.9692 19.9341 58.6436 19.6796 58.3078 19.4453L57.8829 20.1312C58.1954 20.3485 58.4976 20.5859 58.7809 20.8342L59.2744 20.2026Z" fill="white"/>
<path d="M56.4916 18.6817C55.8452 18.3806 55.1706 18.1727 54.4851 18.0625L54.4044 18.8772C55.0399 18.9781 55.6667 19.172 56.268 19.4514L56.4916 18.6817Z" fill="white"/>
<path d="M48.8412 20.1008L48.4751 19.4453C47.8536 19.8818 47.2752 20.3986 46.754 20.9811L47.2413 21.5286C47.726 20.9855 48.2654 20.5052 48.8412 20.1008Z" fill="white"/>
<path d="M46.754 34.5912C47.2804 35.1719 47.8637 35.6846 48.4873 36.1146L48.8412 35.4452C48.2617 35.0463 47.7198 34.5705 47.2311 34.0312L46.754 34.5912Z" fill="white"/>
<path d="M50.2325 36.2525C50.8886 36.5399 51.5717 36.7282 52.2621 36.8107L52.3197 35.9404C51.6784 35.8644 51.0444 35.6911 50.4349 35.4219L50.2325 36.2525Z" fill="white"/>
<path d="M52.25 18.9169L52.3197 18.9088L52.2867 18.4816L52.1875 18.0625C51.5228 18.1551 50.8654 18.35 50.2325 18.6375L50.4431 19.4514C51.0295 19.1817 51.6391 19.003 52.25 18.9169Z" fill="white"/>
<path d="M44.6661 30.7852C44.8893 31.4374 45.1834 32.0625 45.5415 32.6458L46.0576 32.2914C45.7251 31.75 45.452 31.1679 45.245 30.5625L44.6661 30.7852Z" fill="white"/>
<path d="M46.0576 22.5744L45.5307 22.2266C45.1754 22.8141 44.8849 23.4421 44.6661 24.0948L45.2531 24.3099C45.4577 23.7052 45.7283 23.1213 46.0576 22.5744Z" fill="white"/>
<path d="M44.6077 27.3693C44.6077 27.2188 44.6113 27.067 44.6185 26.9152C44.6269 26.7621 44.6389 26.6103 44.6533 26.4597L44.0213 26.3906C44.0045 26.5523 43.9912 26.7152 43.9828 26.8794C43.9744 27.0435 43.9708 27.2064 43.9708 27.3681C43.9708 27.7359 43.9925 28.1086 44.0345 28.4739L44.6666 28.3974C44.6269 28.058 44.6077 27.7112 44.6077 27.3693Z" fill="white"/>
<path d="M62.5108 25.747L62.0607 27.7812L62.7397 27.9325L63.1898 25.8982L62.5108 25.747Z" fill="white"/>
<path d="M64.5948 13.9423L64.1447 15.9766L64.8237 16.1278L65.2738 14.0935L64.5948 13.9423Z" fill="white"/>
<path d="M63.2061 21.5829L62.756 23.6172L63.435 23.7684L63.8852 21.7341L63.2061 21.5829Z" fill="white"/>
<path d="M63.9014 18.1064L63.4513 20.1406L64.1303 20.2918L64.5805 18.2576L63.9014 18.1064Z" fill="white"/>
<path d="M54.4044 36.0324L54.4961 36.8107C55.1792 36.6904 55.8513 36.4676 56.4916 36.1482L56.246 35.4219C55.6545 35.716 55.035 35.9225 54.4044 36.0324Z" fill="white"/>
<path d="M60.6661 31.6443L61.2578 31.9505C61.5955 31.3455 61.8646 30.7027 62.0576 30.0416L61.4101 29.8672C61.2311 30.4832 60.981 31.0808 60.6661 31.6443Z" fill="white"/>
<path d="M57.8829 34.8278L58.3001 35.4271C58.9091 34.9664 59.4711 34.4288 59.9701 33.8296L59.4336 33.3438C58.9708 33.901 58.449 34.3994 57.8829 34.8278Z" fill="white"/>
<path d="M65.9924 9.77152L65.5372 11.8047L66.2167 11.9541L66.6718 9.92092L65.9924 9.77152Z" fill="white"/>
<path d="M66.6877 6.29495L66.2325 8.32812L66.912 8.47753L67.3671 6.44436L66.6877 6.29495Z" fill="white"/>
<path d="M67.3847 2.82616L66.9298 4.85938L67.6093 5.00871L68.0642 2.9755L67.3847 2.82616Z" fill="white"/>
</svg>
