<svg width="144" height="25" viewBox="0 0 144 25" fill="none" xmlns="http://www.w3.org/2000/svg">
<rect y="0.994141" width="24" height="24" rx="12" fill="#BDBDC4"/>
<g clip-path="url(#clip0_4836_1807)">
<path d="M13.3327 13.9928H14.9993L15.666 11.3262H13.3327V9.99284C13.3327 9.30617 13.3327 8.65951 14.666 8.65951H15.666V6.41951C15.4487 6.39084 14.628 6.32617 13.7613 6.32617C11.9513 6.32617 10.666 7.43084 10.666 9.45951V11.3262H8.66602V13.9928H10.666V19.6595H13.3327V13.9928Z" fill="#1B1D33"/>
</g>
<rect x="40" y="0.994141" width="24" height="24" rx="12" fill="#BDBDC4"/>
<g clip-path="url(#clip1_4836_1807)">
<path d="M58.7742 8.76281C58.2653 8.98793 57.7255 9.13579 57.1729 9.20147C57.7554 8.85309 58.1913 8.30481 58.3995 7.65881C57.8529 7.98414 57.2535 8.21214 56.6289 8.33547C56.2093 7.88652 55.6531 7.58878 55.0468 7.48853C54.4406 7.38828 53.8182 7.49113 53.2764 7.78111C52.7346 8.07108 52.3038 8.53193 52.051 9.092C51.7981 9.65207 51.7374 10.28 51.8782 10.8781C50.7696 10.8226 49.6851 10.5345 48.6951 10.0326C47.705 9.53068 46.8316 8.82617 46.1315 7.96481C45.8837 8.39044 45.7535 8.87429 45.7542 9.36681C45.7542 10.3335 46.2462 11.1875 46.9942 11.6875C46.5516 11.6735 46.1186 11.554 45.7315 11.3388V11.3735C45.7317 12.0173 45.9545 12.6412 46.3621 13.1395C46.7698 13.6378 47.3372 13.9798 47.9682 14.1075C47.5573 14.2188 47.1264 14.2352 46.7082 14.1555C46.8861 14.7096 47.2329 15.1943 47.6999 15.5415C48.167 15.8888 48.731 16.0813 49.3129 16.0921C48.7345 16.5464 48.0723 16.8821 47.3641 17.0803C46.6559 17.2784 45.9156 17.335 45.1855 17.2468C46.46 18.0664 47.9436 18.5016 49.4589 18.5001C54.5875 18.5001 57.3922 14.2515 57.3922 10.5668C57.3922 10.4468 57.3889 10.3255 57.3835 10.2068C57.9295 9.81225 58.4006 9.32349 58.7749 8.76347L58.7742 8.76281Z" fill="#1B1D33"/>
</g>
<rect x="80" y="0.994141" width="24" height="24" rx="12" fill="#BDBDC4"/>
<g clip-path="url(#clip2_4836_1807)">
<path d="M92.0007 6.32617C93.812 6.32617 94.038 6.33284 94.7487 6.36617C95.4587 6.39951 95.942 6.51084 96.3673 6.67617C96.8073 6.84551 97.178 7.07484 97.5487 7.44484C97.8876 7.7781 98.15 8.18123 98.3173 8.62617C98.482 9.05084 98.594 9.53484 98.6273 10.2448C98.6587 10.9555 98.6673 11.1815 98.6673 12.9928C98.6673 14.8042 98.6607 15.0302 98.6273 15.7408C98.594 16.4508 98.482 16.9342 98.3173 17.3595C98.1504 17.8047 97.8881 18.2079 97.5487 18.5408C97.2153 18.8797 96.8122 19.142 96.3673 19.3095C95.9427 19.4742 95.4587 19.5862 94.7487 19.6195C94.038 19.6508 93.812 19.6595 92.0007 19.6595C90.1893 19.6595 89.9633 19.6528 89.2527 19.6195C88.5427 19.5862 88.0593 19.4742 87.634 19.3095C87.1889 19.1425 86.7857 18.8801 86.4527 18.5408C86.1136 18.2076 85.8513 17.8045 85.684 17.3595C85.5187 16.9348 85.4073 16.4508 85.374 15.7408C85.3427 15.0302 85.334 14.8042 85.334 12.9928C85.334 11.1815 85.3407 10.9555 85.374 10.2448C85.4073 9.53417 85.5187 9.05151 85.684 8.62617C85.8508 8.18096 86.1132 7.77772 86.4527 7.44484C86.7858 7.10566 87.1889 6.84332 87.634 6.67617C88.0593 6.51084 88.542 6.39951 89.2527 6.36617C89.9633 6.33484 90.1893 6.32617 92.0007 6.32617ZM92.0007 9.65951C91.1166 9.65951 90.2687 10.0107 89.6436 10.6358C89.0185 11.2609 88.6673 12.1088 88.6673 12.9928C88.6673 13.8769 89.0185 14.7247 89.6436 15.3499C90.2687 15.975 91.1166 16.3262 92.0007 16.3262C92.8847 16.3262 93.7326 15.975 94.3577 15.3499C94.9828 14.7247 95.334 13.8769 95.334 12.9928C95.334 12.1088 94.9828 11.2609 94.3577 10.6358C93.7326 10.0107 92.8847 9.65951 92.0007 9.65951ZM96.334 9.49284C96.334 9.27182 96.2462 9.05986 96.0899 8.90358C95.9336 8.7473 95.7217 8.65951 95.5007 8.65951C95.2796 8.65951 95.0677 8.7473 94.9114 8.90358C94.7551 9.05986 94.6673 9.27182 94.6673 9.49284C94.6673 9.71385 94.7551 9.92581 94.9114 10.0821C95.0677 10.2384 95.2796 10.3262 95.5007 10.3262C95.7217 10.3262 95.9336 10.2384 96.0899 10.0821C96.2462 9.92581 96.334 9.71385 96.334 9.49284ZM92.0007 10.9928C92.5311 10.9928 93.0398 11.2036 93.4149 11.5786C93.7899 11.9537 94.0007 12.4624 94.0007 12.9928C94.0007 13.5233 93.7899 14.032 93.4149 14.4071C93.0398 14.7821 92.5311 14.9928 92.0007 14.9928C91.4702 14.9928 90.9615 14.7821 90.5864 14.4071C90.2114 14.032 90.0007 13.5233 90.0007 12.9928C90.0007 12.4624 90.2114 11.9537 90.5864 11.5786C90.9615 11.2036 91.4702 10.9928 92.0007 10.9928Z" fill="#1B1D33"/>
</g>
<rect x="120" y="0.994141" width="24" height="24" rx="12" fill="white"/>
<g clip-path="url(#clip3_4836_1807)">
<path d="M128.626 8.32814C128.625 8.68176 128.485 9.02083 128.235 9.27075C127.984 9.52068 127.645 9.66098 127.292 9.66081C126.938 9.66063 126.599 9.51999 126.349 9.26981C126.099 9.01964 125.959 8.68043 125.959 8.32681C125.959 7.97319 126.1 7.63412 126.35 7.38419C126.6 7.13427 126.939 6.99396 127.293 6.99414C127.647 6.99432 127.986 7.13496 128.236 7.38514C128.486 7.63531 128.626 7.97452 128.626 8.32814ZM128.666 10.6481H125.999V18.9948H128.666V10.6481ZM132.879 10.6481H130.226V18.9948H132.852V14.6148C132.852 12.1748 136.032 11.9481 136.032 14.6148V18.9948H138.666V13.7081C138.666 9.59481 133.959 9.74814 132.852 11.7681L132.879 10.6481Z" fill="#1B1D33"/>
</g>
<defs>
<clipPath id="clip0_4836_1807">
<rect width="16" height="16" fill="white" transform="translate(4 4.99414)"/>
</clipPath>
<clipPath id="clip1_4836_1807">
<rect width="16" height="16" fill="white" transform="translate(44 4.99414)"/>
</clipPath>
<clipPath id="clip2_4836_1807">
<rect width="16" height="16" fill="white" transform="translate(84 4.99414)"/>
</clipPath>
<clipPath id="clip3_4836_1807">
<rect width="16" height="16" fill="white" transform="translate(124 4.99414)"/>
</clipPath>
</defs>
</svg>
