<svg width="148" height="149" viewBox="0 0 148 149" fill="none" xmlns="http://www.w3.org/2000/svg">
<path d="M6.37919 83.1232L4.512 84.0179C4.34512 84.0978 4.34571 84.3352 4.51317 84.4145L9.35384 86.7055C9.41511 86.7346 9.48688 86.7335 9.54698 86.7026L11.5723 85.672C11.738 85.588 11.7304 85.3483 11.5595 85.2748L6.56124 83.1197C6.50289 83.0946 6.43637 83.0958 6.37919 83.1232Z" fill="white"/>
<path d="M32.3813 94.3652L29.7964 96.0175C29.6506 96.1102 29.6646 96.3272 29.8204 96.4007L41.9681 102.151C42.0411 102.185 42.1274 102.177 42.1928 102.129L44.9912 100.056C45.1272 99.9555 45.1027 99.745 44.9475 99.6779L32.5867 94.3483C32.5196 94.3197 32.4426 94.3261 32.3813 94.3652Z" fill="white"/>
<path d="M16.8525 87.6591L14.6562 88.8396C14.4975 88.9247 14.5033 89.1539 14.6661 89.2309L22.0222 92.7134C22.0882 92.7444 22.1646 92.7409 22.2276 92.7041L24.6205 91.2979C24.7752 91.2069 24.7612 90.9783 24.596 90.9071L17.0433 87.6509C16.982 87.6241 16.9114 87.6276 16.8525 87.6591Z" fill="white"/>
<path d="M57.8813 105.376L54.9218 107.928C54.8016 108.031 54.8279 108.224 54.9714 108.292L78.0953 119.237C78.1852 119.279 78.292 119.256 78.3561 119.181L81.3553 115.672C81.451 115.559 81.4107 115.386 81.2754 115.328L58.1118 105.341C58.0348 105.307 57.9449 105.321 57.8813 105.376Z" fill="white"/>
<path d="M0.179199 80.3735C0.230547 81.0664 0.292981 81.7604 0.364167 82.4556L0.704928 82.6172L2.96539 81.5749L0.179199 80.3735Z" fill="white"/>
<path d="M104.809 131.885L114.268 136.362C114.622 136.529 115.041 136.499 115.365 136.28C116.692 135.384 117.987 134.447 119.249 133.471C119.906 132.962 119.763 131.925 118.999 131.595L107.719 126.733C107.617 126.688 107.497 126.728 107.442 126.825L104.713 131.577C104.648 131.688 104.693 131.83 104.809 131.885Z" fill="white"/>
<path d="M82.3918 148.516C83.3855 148.402 84.3722 148.268 85.3519 148.115C86.3485 147.959 86.6251 146.651 85.7778 146.104L1.9361 91.8545C10.3326 127.958 44.6578 152.823 82.3918 148.516Z" fill="#FACEBC"/>
<path d="M0.0519309 74.9688H0C0 75.0685 0.00408444 75.1689 0.00408444 75.2686L133.709 118.648C133.8 118.525 133.89 118.401 133.979 118.277C134.044 118.187 134.099 118.094 134.162 118.004C146.888 99.9706 133.745 74.9688 111.571 74.9688H0.0519309Z" fill="#FACEBC"/>
<path d="M20.4758 23.9606C12.8863 31.9261 7.09513 41.5432 3.64551 52.1296L74.0196 57.6172L144.413 52.1296C140.933 41.3928 135.097 31.8311 127.577 23.9606L74.0208 19.571L20.4758 23.9606Z" fill="#FAD2C2"/>
<path d="M3.6253 52.1151C1.2639 59.3616 -0.00928493 67.0565 5.09789e-05 74.9882H111.571C133.745 74.9882 146.888 99.99 134.162 118.023C142.93 105.781 148.019 90.854 148 74.9882C147.996 72.2147 147.853 69.4149 147.531 66.5935C146.958 61.5782 145.892 56.739 144.393 52.1151H3.6253Z" fill="#FBDCD0"/>
<path d="M65.5966 1.48104C47.6723 3.52739 31.9897 11.8207 20.4517 23.9297H127.553C113.944 9.68745 94.8099 0.997597 74.083 0.997013C71.2793 0.996431 68.4488 1.15563 65.5966 1.48104Z" fill="#FBDCD0"/>
</svg>
