<svg width="24" height="25" viewBox="0 0 24 25" fill="none" xmlns="http://www.w3.org/2000/svg">
<rect y="0.994141" width="24" height="24" rx="12" fill="#BDBDC4"/>
<g clip-path="url(#clip0_4886_1815)">
<path d="M18.7742 8.76281C18.2653 8.98793 17.7255 9.13579 17.1729 9.20147C17.7554 8.85309 18.1913 8.30481 18.3995 7.65881C17.8529 7.98414 17.2535 8.21214 16.6289 8.33547C16.2093 7.88652 15.6531 7.58878 15.0468 7.48853C14.4406 7.38828 13.8182 7.49113 13.2764 7.78111C12.7346 8.07108 12.3038 8.53193 12.051 9.092C11.7981 9.65207 11.7374 10.28 11.8782 10.8781C10.7696 10.8226 9.6851 10.5345 8.69507 10.0326C7.70504 9.53068 6.83163 8.82617 6.13155 7.96481C5.88374 8.39044 5.75352 8.87429 5.75421 9.36681C5.75421 10.3335 6.24621 11.1875 6.99421 11.6875C6.55155 11.6735 6.11864 11.554 5.73155 11.3388V11.3735C5.73168 12.0173 5.95446 12.6412 6.36211 13.1395C6.76976 13.6378 7.3372 13.9798 7.96821 14.1075C7.55729 14.2188 7.12642 14.2352 6.70821 14.1555C6.88612 14.7096 7.23288 15.1943 7.69994 15.5415C8.167 15.8888 8.73097 16.0813 9.31288 16.0921C8.73453 16.5464 8.07233 16.8821 7.36413 17.0803C6.65594 17.2784 5.91563 17.335 5.18555 17.2468C6.46001 18.0664 7.94361 18.5016 9.45888 18.5001C14.5875 18.5001 17.3922 14.2515 17.3922 10.5668C17.3922 10.4468 17.3889 10.3255 17.3835 10.2068C17.9295 9.81225 18.4006 9.32349 18.7749 8.76347L18.7742 8.76281Z" fill="#1B1D33"/>
</g>
<defs>
<clipPath id="clip0_4886_1815">
<rect width="16" height="16" fill="white" transform="translate(4 4.99414)"/>
</clipPath>
</defs>
</svg>
